<svg width="64" height="64" viewBox="0 0 64 64" fill="none" xmlns="http://www.w3.org/2000/svg">
    <defs>
        <linearGradient id="logoGradient" x1="0" y1="0" x2="64" y2="64" gradientUnits="userSpaceOnUse">
            <stop stop-color="#6B66FF"/>
            <stop offset="1" stop-color="#FF6B6B"/>
        </linearGradient>
        <filter id="glow" x="-50%" y="-50%" width="200%" height="200%">
            <feGaussianBlur stdDeviation="3" result="coloredBlur"/>
            <feMerge>
                <feMergeNode in="coloredBlur"/>
                <feMergeNode in="SourceGraphic"/>
            </feMerge>
        </filter>
    </defs>
    <path d="M56.5858 24.2426L39.7574 7.41421C39.1912 6.84792 38.2043 6.84792 37.638 7.41421L34.1023 10.9499L26.3431 3.19073C25.5621 2.40968 24.2957 2.40968 23.5147 3.19073L19.7782 6.92723L16.2426 3.3915C15.6763 2.82521 14.6895 2.82521 14.1232 3.3915L7.41421 10.0991C6.84792 10.6654 6.84792 11.6523 7.41421 12.2186L10.9499 15.7543L3.19073 23.5134C2.40968 24.2945 2.40968 25.5609 3.19073 26.3419L6.92723 30.0784L3.3915 33.6141C2.82521 34.1804 2.82521 35.1673 3.3915 35.7336L10.0991 42.4411C10.6654 43.0074 11.6523 43.0074 12.2186 42.4411L15.7543 38.9054L23.5134 46.6646C24.2945 47.4456 25.5609 47.4456 26.3419 46.6646L30.0784 42.9281L33.6141 46.4638C34.1804 47.0301 35.1673 47.0301 35.7336 46.4638L42.4411 39.7562C43.0074 39.1899 43.0074 38.2031 42.4411 37.6368L38.9054 34.1011L46.6646 26.3419C47.4456 25.5609 47.4456 24.2945 46.6646 23.5134L42.9281 19.7769L46.4638 16.2412C47.0301 15.6749 47.0301 14.6881 46.4638 14.1218L39.7562 7.41421L56.5858 24.2426Z" fill="url(#logoGradient)" transform="translate(4.5 4.5) scale(0.85)"/>
    <path d="M32 18.0001L37.3333 28.6667L48 32.0001L37.3333 35.3334L32 46.0001L26.6667 35.3334L16 32.0001L26.6667 28.6667L32 18.0001Z" fill="white" filter="url(#glow)"/>
</svg>